<svg width="71" height="31" viewBox="0 0 71 31" fill="none" xmlns="http://www.w3.org/2000/svg">
<g clip-path="url(#clip0_139_8)">
<path d="M37.0562 8.08875C39.5853 8.08875 41.3776 8.93725 42.4314 10.6343C42.9117 11.4071 43.1519 12.1783 43.1519 12.9512C43.1519 13.8753 42.8055 14.8011 42.1144 15.7269C43.8005 16.5754 44.6436 17.8482 44.6436 19.5452C44.6436 23.7877 42.536 25.909 38.3208 25.909H29.4672V9.3615L28.2026 8.08875H37.0562ZM37.0562 14.4525C37.8992 14.4525 38.3208 14.1352 38.3208 13.4988C38.3208 12.8624 37.8992 12.5434 37.0562 12.5434H34.5271V14.4525H37.0562ZM38.3208 20.818C39.1638 20.818 39.5853 20.3937 39.5853 19.5452C39.5853 18.6967 39.1638 18.2724 38.3208 18.2724H34.5271V20.818H38.3208Z" fill="url(#paint0_linear_139_8)"/>
<path d="M56.9754 8.08875V13.1798H50.6526V15.7253H58.2416L50.6526 19.5436V20.8163H56.9754V25.9073H45.5927V9.3615L44.3281 8.08875H56.9754Z" fill="url(#paint1_linear_139_8)"/>
<path d="M58.3525 8.08875H70.9998V13.1798H67.2061V31L62.1479 25.909V13.1798H59.6187L58.3542 14.4525V8.08875H58.3525Z" fill="url(#paint2_linear_139_8)"/>
<path d="M16.2483 16.8862L10.1167 7.81085H15.951L19.0944 12.5302L22.3016 7.81085H28.1489L22.0957 16.924L28.1489 25.96H22.4176L19.0552 21.2669L16.0033 25.96H10.1167L16.2483 16.8846V16.8862Z" fill="url(#paint3_linear_139_8)"/>
<path d="M8.59868 0V25.9616H2.86242V8.65441H0L8.59868 0Z" fill="url(#paint4_linear_139_8)"/>
</g>
<defs>
<linearGradient id="paint0_linear_139_8" x1="5.40624" y1="-0.615001" x2="68.0715" y2="36.9825" gradientUnits="userSpaceOnUse">
<stop stop-color="#FF0000"/>
<stop offset="1" stop-color="#FFFF00"/>
</linearGradient>
<linearGradient id="paint1_linear_139_8" x1="9.92195" y1="-8.14136" x2="72.5856" y2="29.4578" gradientUnits="userSpaceOnUse">
<stop stop-color="#FF0000"/>
<stop offset="1" stop-color="#FFFF00"/>
</linearGradient>
<linearGradient id="paint2_linear_139_8" x1="13.5636" y1="-14.2124" x2="76.2289" y2="23.3867" gradientUnits="userSpaceOnUse">
<stop stop-color="#FF0000"/>
<stop offset="1" stop-color="#FFFF00"/>
</linearGradient>
<linearGradient id="paint3_linear_139_8" x1="-3.83921" y1="-10.7099" x2="23.1785" y2="21.3285" gradientUnits="userSpaceOnUse">
<stop stop-color="#0000FF"/>
<stop offset="1" stop-color="#00FFFF"/>
</linearGradient>
<linearGradient id="paint4_linear_139_8" x1="-9.80279" y1="-5.67972" x2="17.2133" y2="26.3587" gradientUnits="userSpaceOnUse">
<stop stop-color="#0000FF"/>
<stop offset="1" stop-color="#00FFFF"/>
</linearGradient>
<clipPath id="clip0_139_8">
<rect width="71" height="31" fill="white"/>
</clipPath>
</defs>
</svg>
